<svg xmlns="http://www.w3.org/2000/svg" width="18.04" height="17.999" viewBox="0 0 18.04 17.999">
  <path id="Union_1" data-name="Union 1" d="M14.133,18a.292.292,0,0,1-.291-.291V12.053c0-1.584-.117-2.8-1.589-2.8-1.351,0-1.878.756-1.878,2.7v5.755a.291.291,0,0,1-.291.291H6.471a.292.292,0,0,1-.293-.291V6.075a.292.292,0,0,1,.293-.291H9.938a.291.291,0,0,1,.291.291v.756A4.254,4.254,0,0,1,13.41,5.494c4.08,0,4.63,2.949,4.63,5.833v6.381a.291.291,0,0,1-.292.291ZM.578,18a.29.29,0,0,1-.291-.289V6.075a.291.291,0,0,1,.291-.291H4.2a.291.291,0,0,1,.291.291V17.71A.291.291,0,0,1,4.2,18ZM0,2.388A2.389,2.389,0,1,1,2.391,4.775,2.392,2.392,0,0,1,0,2.388Z" fill="#1e3598"/>
</svg>
