<svg xmlns="http://www.w3.org/2000/svg" xmlns:xlink="http://www.w3.org/1999/xlink" width="123" height="175" viewBox="0 0 123 175">
  <defs>
    <clipPath id="clip-path">
      <rect width="123" height="175" fill="none"/>
    </clipPath>
  </defs>
  <g id="Repeat_Grid_1" data-name="Repeat Grid 1" clip-path="url(#clip-path)">
    <g id="Group_4" data-name="Group 4" transform="translate(-328.814 -304.64)">
      <path id="Path_10" data-name="Path 10" d="M328.814,314.64v-6.154a3.85,3.85,0,0,0,3.846-3.846h6.154A10.011,10.011,0,0,1,328.814,314.64Z" fill="#d2d6d9"/>
    </g>
    <g id="Group_4-2" data-name="Group 4" transform="translate(-302.814 -304.64)">
      <path id="Path_10-2" data-name="Path 10" d="M328.814,314.64v-6.154a3.85,3.85,0,0,0,3.846-3.846h6.154A10.011,10.011,0,0,1,328.814,314.64Z" fill="#d2d6d9"/>
    </g>
    <g id="Group_4-3" data-name="Group 4" transform="translate(-276.814 -304.64)">
      <path id="Path_10-3" data-name="Path 10" d="M328.814,314.64v-6.154a3.85,3.85,0,0,0,3.846-3.846h6.154A10.011,10.011,0,0,1,328.814,314.64Z" fill="#d2d6d9"/>
    </g>
    <g id="Group_4-4" data-name="Group 4" transform="translate(-250.814 -304.64)">
      <path id="Path_10-4" data-name="Path 10" d="M328.814,314.64v-6.154a3.85,3.85,0,0,0,3.846-3.846h6.154A10.011,10.011,0,0,1,328.814,314.64Z" fill="#d2d6d9"/>
    </g>
    <g id="Group_4-5" data-name="Group 4" transform="translate(-224.814 -304.64)">
      <path id="Path_10-5" data-name="Path 10" d="M328.814,314.64v-6.154a3.85,3.85,0,0,0,3.846-3.846h6.154A10.011,10.011,0,0,1,328.814,314.64Z" fill="#d2d6d9"/>
    </g>
    <g id="Group_4-6" data-name="Group 4" transform="translate(-328.814 -278.64)">
      <path id="Path_10-6" data-name="Path 10" d="M328.814,314.64v-6.154a3.85,3.85,0,0,0,3.846-3.846h6.154A10.011,10.011,0,0,1,328.814,314.64Z" fill="#d2d6d9"/>
    </g>
    <g id="Group_4-7" data-name="Group 4" transform="translate(-302.814 -278.64)">
      <path id="Path_10-7" data-name="Path 10" d="M328.814,314.64v-6.154a3.85,3.85,0,0,0,3.846-3.846h6.154A10.011,10.011,0,0,1,328.814,314.64Z" fill="#d2d6d9"/>
    </g>
    <g id="Group_4-8" data-name="Group 4" transform="translate(-276.814 -278.64)">
      <path id="Path_10-8" data-name="Path 10" d="M328.814,314.64v-6.154a3.85,3.85,0,0,0,3.846-3.846h6.154A10.011,10.011,0,0,1,328.814,314.64Z" fill="#d2d6d9"/>
    </g>
    <g id="Group_4-9" data-name="Group 4" transform="translate(-250.814 -278.64)">
      <path id="Path_10-9" data-name="Path 10" d="M328.814,314.64v-6.154a3.85,3.85,0,0,0,3.846-3.846h6.154A10.011,10.011,0,0,1,328.814,314.64Z" fill="#d2d6d9"/>
    </g>
    <g id="Group_4-10" data-name="Group 4" transform="translate(-224.814 -278.64)">
      <path id="Path_10-10" data-name="Path 10" d="M328.814,314.64v-6.154a3.85,3.85,0,0,0,3.846-3.846h6.154A10.011,10.011,0,0,1,328.814,314.64Z" fill="#d2d6d9"/>
    </g>
    <g id="Group_4-11" data-name="Group 4" transform="translate(-328.814 -252.64)">
      <path id="Path_10-11" data-name="Path 10" d="M328.814,314.64v-6.154a3.85,3.85,0,0,0,3.846-3.846h6.154A10.011,10.011,0,0,1,328.814,314.64Z" fill="#d2d6d9"/>
    </g>
    <g id="Group_4-12" data-name="Group 4" transform="translate(-302.814 -252.64)">
      <path id="Path_10-12" data-name="Path 10" d="M328.814,314.64v-6.154a3.85,3.85,0,0,0,3.846-3.846h6.154A10.011,10.011,0,0,1,328.814,314.64Z" fill="#d2d6d9"/>
    </g>
    <g id="Group_4-13" data-name="Group 4" transform="translate(-276.814 -252.64)">
      <path id="Path_10-13" data-name="Path 10" d="M328.814,314.64v-6.154a3.85,3.85,0,0,0,3.846-3.846h6.154A10.011,10.011,0,0,1,328.814,314.64Z" fill="#d2d6d9"/>
    </g>
    <g id="Group_4-14" data-name="Group 4" transform="translate(-250.814 -252.64)">
      <path id="Path_10-14" data-name="Path 10" d="M328.814,314.64v-6.154a3.85,3.85,0,0,0,3.846-3.846h6.154A10.011,10.011,0,0,1,328.814,314.64Z" fill="#d2d6d9"/>
    </g>
    <g id="Group_4-15" data-name="Group 4" transform="translate(-224.814 -252.64)">
      <path id="Path_10-15" data-name="Path 10" d="M328.814,314.64v-6.154a3.85,3.85,0,0,0,3.846-3.846h6.154A10.011,10.011,0,0,1,328.814,314.64Z" fill="#d2d6d9"/>
    </g>
    <g id="Group_4-16" data-name="Group 4" transform="translate(-328.814 -226.64)">
      <path id="Path_10-16" data-name="Path 10" d="M328.814,314.64v-6.154a3.85,3.85,0,0,0,3.846-3.846h6.154A10.011,10.011,0,0,1,328.814,314.64Z" fill="#d2d6d9"/>
    </g>
    <g id="Group_4-17" data-name="Group 4" transform="translate(-302.814 -226.64)">
      <path id="Path_10-17" data-name="Path 10" d="M328.814,314.64v-6.154a3.85,3.85,0,0,0,3.846-3.846h6.154A10.011,10.011,0,0,1,328.814,314.64Z" fill="#d2d6d9"/>
    </g>
    <g id="Group_4-18" data-name="Group 4" transform="translate(-276.814 -226.64)">
      <path id="Path_10-18" data-name="Path 10" d="M328.814,314.64v-6.154a3.85,3.85,0,0,0,3.846-3.846h6.154A10.011,10.011,0,0,1,328.814,314.64Z" fill="#d2d6d9"/>
    </g>
    <g id="Group_4-19" data-name="Group 4" transform="translate(-250.814 -226.64)">
      <path id="Path_10-19" data-name="Path 10" d="M328.814,314.64v-6.154a3.85,3.85,0,0,0,3.846-3.846h6.154A10.011,10.011,0,0,1,328.814,314.64Z" fill="#d2d6d9"/>
    </g>
    <g id="Group_4-20" data-name="Group 4" transform="translate(-224.814 -226.64)">
      <path id="Path_10-20" data-name="Path 10" d="M328.814,314.64v-6.154a3.85,3.85,0,0,0,3.846-3.846h6.154A10.011,10.011,0,0,1,328.814,314.64Z" fill="#d2d6d9"/>
    </g>
    <g id="Group_4-21" data-name="Group 4" transform="translate(-328.814 -200.64)">
      <path id="Path_10-21" data-name="Path 10" d="M328.814,314.64v-6.154a3.85,3.85,0,0,0,3.846-3.846h6.154A10.011,10.011,0,0,1,328.814,314.64Z" fill="#d2d6d9"/>
    </g>
    <g id="Group_4-22" data-name="Group 4" transform="translate(-302.814 -200.64)">
      <path id="Path_10-22" data-name="Path 10" d="M328.814,314.64v-6.154a3.85,3.85,0,0,0,3.846-3.846h6.154A10.011,10.011,0,0,1,328.814,314.64Z" fill="#d2d6d9"/>
    </g>
    <g id="Group_4-23" data-name="Group 4" transform="translate(-276.814 -200.64)">
      <path id="Path_10-23" data-name="Path 10" d="M328.814,314.64v-6.154a3.85,3.85,0,0,0,3.846-3.846h6.154A10.011,10.011,0,0,1,328.814,314.64Z" fill="#d2d6d9"/>
    </g>
    <g id="Group_4-24" data-name="Group 4" transform="translate(-250.814 -200.64)">
      <path id="Path_10-24" data-name="Path 10" d="M328.814,314.64v-6.154a3.85,3.85,0,0,0,3.846-3.846h6.154A10.011,10.011,0,0,1,328.814,314.64Z" fill="#d2d6d9"/>
    </g>
    <g id="Group_4-25" data-name="Group 4" transform="translate(-224.814 -200.64)">
      <path id="Path_10-25" data-name="Path 10" d="M328.814,314.64v-6.154a3.85,3.85,0,0,0,3.846-3.846h6.154A10.011,10.011,0,0,1,328.814,314.64Z" fill="#d2d6d9"/>
    </g>
    <g id="Group_4-26" data-name="Group 4" transform="translate(-328.814 -174.64)">
      <path id="Path_10-26" data-name="Path 10" d="M328.814,314.64v-6.154a3.85,3.85,0,0,0,3.846-3.846h6.154A10.011,10.011,0,0,1,328.814,314.64Z" fill="#d2d6d9"/>
    </g>
    <g id="Group_4-27" data-name="Group 4" transform="translate(-302.814 -174.64)">
      <path id="Path_10-27" data-name="Path 10" d="M328.814,314.64v-6.154a3.85,3.85,0,0,0,3.846-3.846h6.154A10.011,10.011,0,0,1,328.814,314.64Z" fill="#d2d6d9"/>
    </g>
    <g id="Group_4-28" data-name="Group 4" transform="translate(-276.814 -174.64)">
      <path id="Path_10-28" data-name="Path 10" d="M328.814,314.64v-6.154a3.85,3.85,0,0,0,3.846-3.846h6.154A10.011,10.011,0,0,1,328.814,314.64Z" fill="#d2d6d9"/>
    </g>
    <g id="Group_4-29" data-name="Group 4" transform="translate(-250.814 -174.64)">
      <path id="Path_10-29" data-name="Path 10" d="M328.814,314.64v-6.154a3.85,3.85,0,0,0,3.846-3.846h6.154A10.011,10.011,0,0,1,328.814,314.64Z" fill="#d2d6d9"/>
    </g>
    <g id="Group_4-30" data-name="Group 4" transform="translate(-224.814 -174.64)">
      <path id="Path_10-30" data-name="Path 10" d="M328.814,314.64v-6.154a3.85,3.85,0,0,0,3.846-3.846h6.154A10.011,10.011,0,0,1,328.814,314.64Z" fill="#d2d6d9"/>
    </g>
    <g id="Group_4-31" data-name="Group 4" transform="translate(-328.814 -148.64)">
      <path id="Path_10-31" data-name="Path 10" d="M328.814,314.64v-6.154a3.85,3.85,0,0,0,3.846-3.846h6.154A10.011,10.011,0,0,1,328.814,314.64Z" fill="#d2d6d9"/>
    </g>
    <g id="Group_4-32" data-name="Group 4" transform="translate(-302.814 -148.64)">
      <path id="Path_10-32" data-name="Path 10" d="M328.814,314.64v-6.154a3.85,3.85,0,0,0,3.846-3.846h6.154A10.011,10.011,0,0,1,328.814,314.64Z" fill="#d2d6d9"/>
    </g>
    <g id="Group_4-33" data-name="Group 4" transform="translate(-276.814 -148.64)">
      <path id="Path_10-33" data-name="Path 10" d="M328.814,314.64v-6.154a3.85,3.85,0,0,0,3.846-3.846h6.154A10.011,10.011,0,0,1,328.814,314.64Z" fill="#d2d6d9"/>
    </g>
    <g id="Group_4-34" data-name="Group 4" transform="translate(-250.814 -148.64)">
      <path id="Path_10-34" data-name="Path 10" d="M328.814,314.64v-6.154a3.85,3.85,0,0,0,3.846-3.846h6.154A10.011,10.011,0,0,1,328.814,314.64Z" fill="#d2d6d9"/>
    </g>
    <g id="Group_4-35" data-name="Group 4" transform="translate(-224.814 -148.64)">
      <path id="Path_10-35" data-name="Path 10" d="M328.814,314.64v-6.154a3.85,3.85,0,0,0,3.846-3.846h6.154A10.011,10.011,0,0,1,328.814,314.64Z" fill="#d2d6d9"/>
    </g>
  </g>
</svg>
