<svg xmlns="http://www.w3.org/2000/svg" width="248" height="55.739" viewBox="0 0 248 55.739">
  <g id="Group_3" data-name="Group 3" transform="translate(-274.814 -264.64)">
    <path id="Path_1" data-name="Path 1" d="M308.6,278.176A33.751,33.751,0,0,0,281.57,264.64h-6.756v33.781h13.513V279.31a20.3,20.3,0,0,1,13.513,19.111h13.513a20.292,20.292,0,0,1,20.269-20.269V264.64A33.751,33.751,0,0,0,308.6,278.176Z" transform="translate(0)" fill="#1e3598"/>
    <g id="Group_1" data-name="Group 1" transform="translate(320.419 298.421)">
      <path id="Path_2" data-name="Path 2" d="M328.814,326.6V313.085a8.455,8.455,0,0,0,8.445-8.445h13.513A21.983,21.983,0,0,1,328.814,326.6Z" transform="translate(-328.814 -304.64)" fill="#3cf"/>
    </g>
    <g id="Group_2" data-name="Group 2" transform="translate(355.863 271.397)">
      <path id="Path_4" data-name="Path 4" d="M562.619,273.441h4.938v25.674h-4.938Z" transform="translate(-400.606 -272.765)" fill="#1e3598"/>
      <path id="Path_5" data-name="Path 5" d="M449.23,286.154a13.514,13.514,0,1,0-4.937,10.442v2.4h4.937V286.154Zm-13.513,8.575a8.575,8.575,0,1,1,8.575-8.575A8.585,8.585,0,0,1,435.718,294.728Z" transform="translate(-378.777 -272.641)" fill="#1e3598"/>
      <path id="Path_6" data-name="Path 6" d="M518.362,273.441v13.668a7.744,7.744,0,1,1-15.487,0h0V273.441h-4.937v13.668a12.681,12.681,0,1,0,25.362,0V273.441Z" transform="translate(-390.551 -272.765)" fill="#1e3598"/>
      <path id="Path_7" data-name="Path 7" d="M543.137,272.641h0a11.044,11.044,0,0,0-11.044,11.044v15.306h4.932V283.378a6.118,6.118,0,1,1,12.236,0v.8h4.92v-.494A11.044,11.044,0,0,0,543.137,272.641Z" transform="translate(-395.861 -272.641)" fill="#1e3598"/>
      <path id="Path_8" data-name="Path 8" d="M407.5,276.659a11.143,11.143,0,0,0-1.5-1.5q-.409-.338-.85-.636a10.992,10.992,0,0,0-6.175-1.886h0a10.992,10.992,0,0,0-6.174,1.886,11.1,11.1,0,0,0-2.4,2.229,11.106,11.106,0,0,0-2.4-2.229,10.992,10.992,0,0,0-6.174-1.886h0a10.992,10.992,0,0,0-6.174,1.886q-.441.3-.85.636a11.142,11.142,0,0,0-1.5,1.5,11,11,0,0,0-2.522,7.026v15.306h4.933V283.378a6.111,6.111,0,1,1,12.222,0v.221c0,.029-.005.056-.005.085v15.306h4.938V283.685c0-.03-.005-.057-.005-.085v-.221a6.111,6.111,0,1,1,12.223,0v15.612h4.932V283.685A11,11,0,0,0,407.5,276.659Z" transform="translate(-370.783 -272.641)" fill="#1e3598"/>
      <path id="Path_9" data-name="Path 9" d="M459.165,299.118l6.445,0,7.83-9.337,7.835,9.332,6.445,0-11.059-13.172,10.485-12.5-6.445,0-7.263,8.661-7.268-8.656-6.445,0,10.491,12.5Z" transform="translate(-384.523 -272.765)" fill="#1e3598"/>
    </g>
  </g>
</svg>
