<svg xmlns="http://www.w3.org/2000/svg" width="144" height="32.364" viewBox="0 0 144 32.364">
  <g id="Group_20" data-name="Group 20" transform="translate(-274.814 -264.64)">
    <path id="Path_1" data-name="Path 1" d="M294.429,272.5a19.6,19.6,0,0,0-15.692-7.86h-3.923v19.615h7.846v-11.1a11.789,11.789,0,0,1,7.846,11.1h7.846a11.782,11.782,0,0,1,11.769-11.769V264.64A19.6,19.6,0,0,0,294.429,272.5Z" transform="translate(0)" fill="#fff"/>
    <g id="Group_1" data-name="Group 1" transform="translate(301.294 284.255)">
      <path id="Path_2" data-name="Path 2" d="M328.814,317.39v-7.846a4.909,4.909,0,0,0,4.9-4.9h7.846A12.764,12.764,0,0,1,328.814,317.39Z" transform="translate(-328.814 -304.64)" fill="#3cf"/>
    </g>
    <g id="Group_2" data-name="Group 2" transform="translate(321.875 268.564)">
      <path id="Path_4" data-name="Path 4" d="M562.619,273.441h2.867v14.907h-2.867Z" transform="translate(-468.547 -273.049)" fill="#fff"/>
      <path id="Path_5" data-name="Path 5" d="M437.9,280.487a7.847,7.847,0,1,0-2.867,6.063v1.391H437.9v-7.454Zm-7.846,4.979a4.979,4.979,0,1,1,4.979-4.979A4.985,4.985,0,0,1,430.051,285.466Z" transform="translate(-396.989 -272.641)" fill="#fff"/>
      <path id="Path_6" data-name="Path 6" d="M509.8,273.441v7.936a4.5,4.5,0,1,1-8.992,0h0v-7.936h-2.867v7.936a7.363,7.363,0,1,0,14.726,0v-7.936Z" transform="translate(-435.584 -273.049)" fill="#fff"/>
      <path id="Path_7" data-name="Path 7" d="M538.506,272.641h0a6.412,6.412,0,0,0-6.413,6.413v8.887h2.864v-9.065a3.552,3.552,0,0,1,7.1,0v.465h2.857v-.287A6.413,6.413,0,0,0,538.506,272.641Z" transform="translate(-452.99 -272.641)" fill="#fff"/>
      <path id="Path_8" data-name="Path 8" d="M392.1,274.974a6.467,6.467,0,0,0-.87-.869q-.237-.2-.493-.369a6.383,6.383,0,0,0-3.586-1.1h0a6.383,6.383,0,0,0-3.585,1.1,6.447,6.447,0,0,0-1.394,1.294,6.449,6.449,0,0,0-1.394-1.294,6.383,6.383,0,0,0-3.585-1.1h0a6.382,6.382,0,0,0-3.585,1.1q-.256.173-.494.369a6.469,6.469,0,0,0-.869.869,6.389,6.389,0,0,0-1.464,4.079v8.887h2.864v-9.065a3.548,3.548,0,1,1,7.1,0V279c0,.017,0,.032,0,.05v8.887h2.867v-8.887c0-.017,0-.033,0-.05v-.129a3.549,3.549,0,1,1,7.1,0v9.065h2.864v-8.887A6.386,6.386,0,0,0,392.1,274.974Z" transform="translate(-370.783 -272.641)" fill="#fff"/>
      <path id="Path_9" data-name="Path 9" d="M459.165,288.348h3.742l4.546-5.421L472,288.345h3.742l-6.421-7.648,6.088-7.259H471.67l-4.217,5.029-4.22-5.026H459.49l6.092,7.256Z" transform="translate(-415.825 -273.046)" fill="#fff"/>
    </g>
  </g>
</svg>
