<svg xmlns="http://www.w3.org/2000/svg" width="208" height="208" viewBox="0 0 208 208">
  <g id="Group_10" data-name="Group 10" transform="translate(-569 -1263)">
    <g id="Ellipse_4" data-name="Ellipse 4" transform="translate(585 1279)" fill="#fff" stroke="#f0f1f2" stroke-width="16">
      <circle cx="88" cy="88" r="88" stroke="none"/>
      <circle cx="88" cy="88" r="96" fill="none"/>
    </g>
    <g id="mobile-cart" transform="translate(650 1343)">
      <line id="Line_3" data-name="Line 3" x2="14" transform="translate(4 34)" fill="none" stroke="#1e3598" stroke-linecap="round" stroke-linejoin="round" stroke-miterlimit="10" stroke-width="2"/>
      <line id="Line_4" data-name="Line 4" x2="30" transform="translate(4 9)" fill="none" stroke="#1e3598" stroke-linecap="round" stroke-linejoin="round" stroke-miterlimit="10" stroke-width="2"/>
      <path id="Path_17" data-name="Path 17" d="M34,37v6a3,3,0,0,1-3,3H7a3,3,0,0,1-3-3V5A3,3,0,0,1,7,2H31.027a3,3,0,0,1,3,3.006L34,19" fill="none" stroke="#1e3598" stroke-linecap="round" stroke-linejoin="round" stroke-miterlimit="10" stroke-width="2"/>
      <circle id="Ellipse_7" data-name="Ellipse 7" cx="2" cy="2" r="2" transform="translate(25 33)" fill="none" stroke="#1e3598" stroke-linecap="round" stroke-linejoin="round" stroke-miterlimit="10" stroke-width="2"/>
      <circle id="Ellipse_8" data-name="Ellipse 8" cx="2" cy="2" r="2" transform="translate(39 33)" fill="none" stroke="#1e3598" stroke-linecap="round" stroke-linejoin="round" stroke-miterlimit="10" stroke-width="2"/>
      <path id="Path_18" data-name="Path 18" d="M24.9,19H43l-2,9H27L24,15H20" fill="none" stroke="#1e3598" stroke-linecap="round" stroke-linejoin="round" stroke-miterlimit="10" stroke-width="2"/>
    </g>
  </g>
</svg>
