<?xml version="1.0" encoding="UTF-8" standalone="no"?>
<!DOCTYPE svg PUBLIC "-//W3C//DTD SVG 1.1//EN" "http://www.w3.org/Graphics/SVG/1.1/DTD/svg11.dtd">
<svg width="100%" height="100%" viewBox="0 0 33 262" version="1.1" xmlns="http://www.w3.org/2000/svg" xmlns:xlink="http://www.w3.org/1999/xlink" xml:space="preserve" xmlns:serif="http://www.serif.com/" style="fill-rule:evenodd;clip-rule:evenodd;">
    <g id="Artboard1" transform="matrix(0.527905,0,0,0.997478,-21.5013,-1.36864)">
        <rect x="40.73" y="1.372" width="62.087" height="262.071" style="fill:none;"/>
        <clipPath id="_clip1">
            <rect x="40.73" y="1.372" width="62.087" height="262.071"/>
        </clipPath>
        <g clip-path="url(#_clip1)">
            <g id="Polygon_2" transform="matrix(1.89428,0,0,1.00253,-64.7865,1.33849)">
                <path d="M80.9,260.6C80.8,261.1 80.2,261.4 79.7,261.3C79.5,261.3 79.4,261.2 79.3,261.1L68.4,250.5C68,250.1 68,249.5 68.4,249.1C68.5,249 68.7,248.9 68.9,248.8L83.9,244.8C84.4,244.7 85,245 85.1,245.5L85.1,246L80.9,260.6Z" style="fill:rgb(215,221,226);fill-rule:nonzero;"/>
            </g>
            <g id="Polygon_3" transform="matrix(1.89428,0,0,1.00253,-64.7865,1.33849)">
                <path d="M80.4,0.3C80.8,-0.1 81.4,-0.1 81.8,0.3C81.9,0.4 82,0.6 82,0.7L86.1,15.3C86.2,15.8 85.9,16.4 85.4,16.5L84.9,16.5L69.9,12.5C69.4,12.4 69.1,11.8 69.2,11.3C69.2,11.1 69.3,11 69.5,10.8L80.4,0.3Z" style="fill:rgb(215,221,226);fill-rule:nonzero;"/>
            </g>
            <g transform="matrix(1.89428,0,0,1.00253,56.4475,-82.8739)">
                <g>
                    <g>
                        <g id="Mask_Group_4">
                            <g id="Ellipse_10">
                                <ellipse cx="72" cy="216.3" rx="72" ry="208" style="fill:none;"/>
                                <ellipse cx="72" cy="216.3" rx="71.5" ry="207.5" style="fill:none;stroke:rgb(215,221,226);stroke-width:1px;"/>
                            </g>
                        </g>
                    </g>
                </g>
            </g>
        </g>
    </g>
</svg>
