<svg xmlns="http://www.w3.org/2000/svg" width="208" height="208" viewBox="0 0 208 208">
  <g id="Group_11" data-name="Group 11" transform="translate(-1138 -1263)">
    <g id="Ellipse_5" data-name="Ellipse 5" transform="translate(1154 1279)" fill="#fff" stroke="#f0f1f2" stroke-width="16">
      <circle cx="88" cy="88" r="88" stroke="none"/>
      <circle cx="88" cy="88" r="96" fill="none"/>
    </g>
    <g id="woman-24" transform="translate(1218 1342.943)">
      <path id="Path_16" data-name="Path 16" d="M39.9,36.632l-9.53-3.177A2,2,0,0,1,29,31.558V30.44a2,2,0,0,1,2.641-1.875A12.905,12.905,0,0,0,36,29c-3-3.25-.247-6.75,0-13,.25-6.333-2-12.833-8-12C25.125,1.208,15.25-.312,12,12c-1.547,5.863,1.75,9-2,16a7.939,7.939,0,0,0,6.452.508A1.973,1.973,0,0,1,19,30.417v1.142a2,2,0,0,1-1.368,1.9L8.1,36.633A6,6,0,0,0,4,42.325V46H44V42.325A6,6,0,0,0,39.9,36.632Z" fill="none" stroke="#1e3598" stroke-linecap="round" stroke-linejoin="round" stroke-miterlimit="10" stroke-width="2" fill-rule="evenodd"/>
    </g>
  </g>
</svg>
